<svg xmlns="http://www.w3.org/2000/svg" width="32" height="32" viewBox="0 0 32 32">
  <!-- Background circle -->
  <circle cx="16" cy="16" r="15" fill="#10b981" stroke="#059669" stroke-width="2"/>
  
  <!-- Apple icon simplified -->
  <path d="M20 10c-1.5-2-4-2-5 0-1-2-3.5-2-5 0-2 2.5-1 7 3 10l2 2 2-2c4-3 5-7.5 3-10z" fill="white"/>
  <path d="M18 8c0-.5.5-1 1-1s1 .5 1 1-.5 1-1 1-1-.5-1-1z" fill="white"/>
  
  <!-- Leaf detail -->
  <path d="M16 12c0 2-1 4-2 5l-1-1c1-1 2-2.5 2-4 0-.5.5-1 1-1s0 .5 0 1z" fill="#10b981" opacity="0.3"/>
</svg>
